<?xml version="1.0" encoding="UTF-8"?>
<svg id="_레이어_1" xmlns="http://www.w3.org/2000/svg" version="1.1" viewBox="0 0 347 55">
  <!-- Generator: Adobe Illustrator 29.5.0, SVG Export Plug-In . SVG Version: 2.1.0 Build 137)  -->
  <defs>
    <style>
      .st0 {
        fill: #fff;
      }

      .st1 {
        fill: #2aa1cd;
      }
    </style>
  </defs>
  <polygon class="st1" points="173.36 55.14 192.94 29.2 153.77 29.2 173.36 55.14"/>
  <rect class="st1" x="-.57" width="348.14" height="42.17"/>
  <g>
    <path class="st0" d="M65.99,21.99h-4.26v-8.67h6v1.67h-4.14v5.35h2.49c.9,0,1.77-.05,2.51-.26v1.56c-.74.25-1.65.35-2.6.35ZM75.21,29.11h-12.34v-5.4h1.91v3.76h10.42v1.65h.01ZM66.84,18.43v-1.67h2.86v-3.53h1.79v10.76h-1.79v-5.56s-2.86,0-2.86,0ZM73.07,24.29v-11.16h1.84v11.16h-1.84Z"/>
    <path class="st0" d="M78.24,28.34v-1.65h14.13v1.65h-14.13ZM91.54,15.09h-10.56v2.63h10.39v1.67h-10.39v2.7h10.76v1.65h-12.67v-10.34h12.48v1.68h-.01Z"/>
    <path class="st0" d="M101.72,27.97h-6.09v-14.65h1.9v12.99h4.3c1.18,0,2.33-.11,3.18-.42v1.58c-.81.33-2.04.51-3.28.51h-.01ZM101.6,20.41v-1.65h4.83v-5.63h1.91v15.92h-1.91v-8.63h-4.83Z"/>
    <path class="st0" d="M117.39,20.66c0-2.88.28-5.04,1.3-6.28.65-.81,1.63-1.25,2.81-1.25s2.16.44,2.83,1.25c1.02,1.25,1.3,3.4,1.3,6.28s-.28,5.04-1.3,6.28c-.67.81-1.63,1.21-2.83,1.21s-2.16-.4-2.81-1.21c-1.02-1.25-1.3-3.4-1.3-6.28ZM123.73,20.66c0-2.53-.18-4.37-.84-5.21-.32-.44-.81-.67-1.39-.67s-1.05.23-1.39.67c-.63.84-.82,2.68-.82,5.21s.19,4.37.82,5.23c.33.4.82.63,1.39.63s1.07-.23,1.39-.63c.67-.86.84-2.7.84-5.23ZM130.29,13.13v15.92h-1.91v-15.92s1.91,0,1.91,0Z"/>
    <path class="st0" d="M140.64,20.9h-6.33v-4.56h5.35v-1.51h-5.35v-1.51h7.25v4.51h-5.35v1.6h4.53c1.04,0,2-.09,2.81-.35v1.4c-.79.33-1.81.42-2.9.42h0ZM137.19,26.48v1.25h10.18v1.47h-12.09v-4.18h9.98v-1.26h-9.98v-1.49h11.9v4.21h-9.99ZM142.31,17.83v-1.67h2.95v-3.04h1.91v8.28h-1.91v-3.58h-2.95Z"/>
    <path class="st0" d="M161.47,15.06v11.27h.05c1.28,0,2.23-.21,2.81-.72v-12.37h1.82v6.19h1.51v-6.3h1.84v15.92h-1.84v-7.95h-1.51v7.76h-1.82v-1.7c-.58.58-1.68.82-3.18.82h-5.18v-14.56h7.25v1.65h-1.75ZM159.65,26.32v-11.27h-1.83v11.27h1.83Z"/>
    <path class="st0" d="M178.14,20.66c0-2.88.28-5.04,1.3-6.28.65-.81,1.63-1.25,2.81-1.25s2.16.44,2.82,1.25c1.02,1.25,1.3,3.4,1.3,6.28s-.28,5.04-1.3,6.28c-.67.81-1.63,1.21-2.82,1.21s-2.16-.4-2.81-1.21c-1.02-1.25-1.3-3.4-1.3-6.28ZM184.48,20.66c0-2.53-.18-4.37-.84-5.21-.31-.44-.81-.67-1.38-.67s-1.05.23-1.39.67c-.63.84-.82,2.68-.82,5.21s.19,4.37.82,5.23c.33.4.82.63,1.39.63s1.07-.23,1.38-.63c.67-.86.84-2.7.84-5.23ZM191.04,13.13v15.92h-1.91v-15.92s1.91,0,1.91,0Z"/>
    <path class="st0" d="M195.29,16.13c0-.84.35-1.47,1-1.95,1.12-.81,3.07-1.07,5.44-1.07s4.32.26,5.42,1.07c.65.47,1,1.11,1,1.95s-.35,1.49-1,1.95c-.42.32-.96.54-1.61.7v1.75h3.33v1.63h-14.34v-1.63h3.42v-1.74c-.67-.16-1.23-.4-1.67-.72-.65-.46-1-1.09-1-1.95h0ZM195.29,26.48c0-.98.46-1.65,1.28-2.14,1.11-.63,2.89-.9,5.16-.9s4.04.26,5.14.9c.82.49,1.28,1.16,1.28,2.14s-.46,1.65-1.28,2.14c-1.11.63-2.86.88-5.14.88s-4.05-.24-5.16-.88c-.82-.49-1.28-1.16-1.28-2.14ZM197.2,16.13c0,.32.16.58.44.77.68.47,2.16.65,4.09.65s3.39-.18,4.07-.65c.3-.19.46-.46.46-.77s-.16-.56-.46-.75c-.69-.47-2.14-.65-4.07-.65s-3.4.18-4.09.65c-.28.19-.44.44-.44.75ZM197.2,26.48c0,.35.19.65.54.86.72.4,2.05.56,3.98.56s3.26-.16,3.97-.56c.37-.21.56-.51.56-.86s-.19-.63-.56-.86c-.7-.4-2.04-.56-3.97-.56s-3.26.16-3.98.56c-.35.23-.54.51-.54.86ZM203.66,19.09c-.6.05-1.25.07-1.93.07s-1.3-.02-1.89-.07v1.44h3.83v-1.44h-.01Z"/>
    <path class="st0" d="M218.47,16.6h-6.9v-1.65h2.53v-2.28h1.93v2.28h2.44v1.65ZM211.9,23.02c0-2.33.44-3.95,1.44-4.72.44-.37,1.02-.56,1.74-.56s1.3.21,1.77.6c.96.79,1.42,2.39,1.42,4.69s-.46,3.95-1.47,4.72c-.44.35-1.02.53-1.72.53s-1.26-.18-1.7-.51c-1.04-.77-1.47-2.37-1.47-4.74h-.01ZM213.73,23.02c0,1.82.23,2.9.68,3.37.18.18.4.28.67.28.25,0,.47-.09.67-.25.46-.46.68-1.54.68-3.4s-.21-2.91-.65-3.37c-.19-.19-.44-.28-.7-.28-.3,0-.54.1-.75.35-.39.51-.6,1.54-.6,3.3h0ZM224.98,29.04h-1.83v-7.91h-1.6v7.72h-1.77v-15.62h1.77v6.23h1.6v-6.33h1.83v15.92h0Z"/>
    <path class="st0" d="M236.17,16.57h8.65v-3.16h1.91v9.63h-5.25v3.65h6.07v1.65h-14.12v-1.65h6.16v-3.65h-5.34v-9.63h1.91v3.16h0ZM244.82,21.38v-3.14h-8.65v3.14h8.65Z"/>
    <path class="st0" d="M253.51,24.55c-.63,1.4-1.97,2.69-3.58,3.42v-1.77c1.6-.96,2.63-2.58,2.63-6.11v-6.77h1.88v6.77c0,3.54,1.04,5.12,2.65,6.12v1.75c-1.61-.72-2.93-2.04-3.58-3.42h0ZM260.27,28.85h-1.86v-8.28h-2.4v-1.65h2.4v-5.69h1.86v15.62ZM263.78,29.04h-1.86v-15.92h1.86v15.92Z"/>
    <path class="st0" d="M267.6,17.99c0-1.46.58-2.58,1.56-3.37,1.18-.95,2.93-1.39,5.04-1.39s3.88.44,5.05,1.39c.96.79,1.56,1.91,1.56,3.37s-.6,2.6-1.56,3.39c-.33.26-.72.49-1.14.68v4.63h3.14v1.65h-14.12v-1.65h3.25v-4.6c-.46-.19-.86-.44-1.21-.72-.98-.79-1.56-1.9-1.56-3.39h-.01ZM269.51,17.99c0,.93.35,1.61.98,2.12.82.68,2.12.98,3.7.98s2.9-.3,3.72-.98c.63-.51.98-1.19.98-2.12s-.35-1.6-.98-2.12c-.82-.67-2.14-.96-3.72-.96s-2.88.3-3.7.96c-.63.53-.98,1.23-.98,2.12ZM276.2,22.6c-.61.11-1.28.16-2,.16-.68,0-1.33-.05-1.93-.14v4.07h3.93v-4.09Z"/>
    <path class="st0" d="M286.36,27.99h-2v-2.05h2v2.05ZM286.34,16.64l-.19,7.55h-1.58l-.19-7.55v-2.4h1.96v2.4Z"/>
  </g>
</svg>