<?xml version="1.0" encoding="UTF-8"?>
<svg id="_레이어_1" xmlns="http://www.w3.org/2000/svg" version="1.1" viewBox="0 0 696.29 55">
  <!-- Generator: Adobe Illustrator 29.5.0, SVG Export Plug-In . SVG Version: 2.1.0 Build 137)  -->
  <defs>
    <style>
      .st0 {
        fill: #fff;
      }

      .st1 {
        fill: #2aa1cd;
      }
    </style>
  </defs>
  <polygon class="st1" points="348.32 55.45 367.9 29.51 328.74 29.51 348.32 55.45"/>
  <rect class="st1" x=".32" width="695.64" height="42.17"/>
  <g>
    <path class="st0" d="M308.89,21.95h-4.26v-8.67h6v1.67h-4.14v5.35h2.49c.9,0,1.77-.05,2.51-.26v1.56c-.74.25-1.65.35-2.6.35h0ZM318.1,29.08h-12.34v-5.4h1.91v3.76h10.42v1.65h0ZM309.73,18.39v-1.67h2.86v-3.53h1.79v10.76h-1.79v-5.56s-2.86,0-2.86,0ZM315.96,24.25v-11.16h1.84v11.16h-1.84Z"/>
    <path class="st0" d="M321.14,28.31v-1.65h14.13v1.65h-14.13ZM334.44,15.06h-10.56v2.63h10.39v1.67h-10.39v2.7h10.76v1.65h-12.67v-10.34h12.48v1.68h-.01Z"/>
    <path class="st0" d="M344.62,27.94h-6.09v-14.65h1.9v12.99h4.3c1.18,0,2.33-.11,3.18-.42v1.58c-.81.33-2.04.51-3.28.51h0ZM344.49,20.37v-1.65h4.83v-5.63h1.91v15.92h-1.91v-8.63h-4.83Z"/>
    <path class="st0" d="M359.81,14.2h8.04v1.77h-6v4.25h5.41v1.77h-5.41v5.97h-2.04s0-13.76,0-13.76Z"/>
    <path class="st0" d="M377.34,27.95l-.96-3.05h-5.44l-.96,3.05h-2.11l4.58-13.76h2.4l4.6,13.76h-2.11ZM373.66,16.22l-2.18,6.91h4.33l-2.16-6.91h.01Z"/>
    <path class="st0" d="M380.26,21.08c0-3.72,1.04-7.11,5.35-7.11s5.33,3.4,5.33,7.11c0,1.77-.23,3.44-.95,4.74l1.67,1.39-1.16,1.26-1.56-1.33c-.81.67-1.9,1.05-3.33,1.05-4.3,0-5.35-3.33-5.35-7.11ZM387.47,25.88l-1.82-1.56,1.14-1.28,1.67,1.44c.33-.88.46-2.02.46-3.4,0-3.26-.72-5.32-3.3-5.32s-3.32,2.05-3.32,5.32.72,5.33,3.32,5.33c.77,0,1.4-.18,1.86-.53h-.01Z"/>
  </g>
</svg>