<?xml version="1.0" encoding="UTF-8"?>
<svg id="_레이어_1" xmlns="http://www.w3.org/2000/svg" version="1.1" viewBox="0 0 696.29 55">
  <!-- Generator: Adobe Illustrator 29.5.0, SVG Export Plug-In . SVG Version: 2.1.0 Build 137)  -->
  <defs>
    <style>
      .st0 {
        fill: #fff;
      }

      .st1 {
        fill: #2aa1cd;
      }
    </style>
  </defs>
  <polygon class="st1" points="348.32 55.45 367.9 29.51 328.74 29.51 348.32 55.45"/>
  <rect class="st1" x=".32" width="695.64" height="42.17"/>
  <g>
    <path class="st0" d="M332.22,14.2h8.04v1.77h-6v4.25h5.41v1.77h-5.41v5.97h-2.04s0-13.76,0-13.76Z"/>
    <path class="st0" d="M349.75,27.95l-.96-3.05h-5.44l-.96,3.05h-2.11l4.58-13.76h2.4l4.6,13.76h-2.11ZM346.07,16.22l-2.18,6.91h4.33l-2.16-6.91h.01Z"/>
    <path class="st0" d="M352.67,21.08c0-3.72,1.04-7.11,5.35-7.11s5.33,3.4,5.33,7.11c0,1.77-.23,3.44-.95,4.74l1.67,1.39-1.16,1.26-1.56-1.33c-.81.67-1.9,1.05-3.33,1.05-4.3,0-5.35-3.33-5.35-7.11ZM359.88,25.88l-1.82-1.56,1.14-1.28,1.67,1.44c.33-.88.46-2.02.46-3.4,0-3.26-.72-5.32-3.3-5.32s-3.32,2.05-3.32,5.32.72,5.33,3.32,5.33c.77,0,1.4-.18,1.86-.53h-.01Z"/>
  </g>
</svg>