<?xml version="1.0" encoding="UTF-8"?>
<svg id="_레이어_1" xmlns="http://www.w3.org/2000/svg" version="1.1" viewBox="0 0 347 55">
  <!-- Generator: Adobe Illustrator 29.5.0, SVG Export Plug-In . SVG Version: 2.1.0 Build 137)  -->
  <defs>
    <style>
      .st0 {
        fill: #fff;
      }

      .st1 {
        fill: #2aa1cd;
      }
    </style>
  </defs>
  <polygon class="st1" points="173.36 55.14 192.94 29.2 153.77 29.2 173.36 55.14"/>
  <g>
    <rect class="st1" x="-.57" width="348.14" height="42.17"/>
    <g>
      <path class="st0" d="M117.36,12.41h3.07l2.28,9.47h.11l2.49-9.47h2.64l2.49,9.48h.11l2.28-9.48h3.07l-3.87,13.54h-2.75l-2.58-8.94h-.11l-2.6,8.94h-2.75l-3.87-13.54Z"/>
      <path class="st0" d="M140.04,25.95h-2.77v-13.54h2.69v5.16h.11c.47-1.18,1.5-1.91,3.03-1.91,2.11,0,3.52,1.42,3.52,3.82v6.47h-2.77v-5.99c0-1.25-.67-2-1.83-2s-1.98.77-1.98,2.11v5.87Z"/>
      <path class="st0" d="M148.6,29.71v-2.15c.36.02.77.04,1.12.04.54,0,.99-.06,1.33-.94l.17-.43-3.65-10.44h2.9l2.13,7.48h.11l2.15-7.48h2.94l-3.97,11.28c-.58,1.63-1.68,2.69-3.83,2.69-.54,0-1.05-.02-1.4-.06Z"/>
      <path class="st0" d="M163.61,25.95v-13.54h4.83c4.08,0,6.57,2.54,6.57,6.75s-2.49,6.79-6.62,6.79h-4.77ZM168.27,23.54c2.58,0,3.93-1.35,3.93-4.38s-1.35-4.34-3.91-4.34h-1.87v8.72h1.85Z"/>
      <path class="st0" d="M176.57,20.92c0-3.14,1.93-5.26,4.9-5.26,2.67,0,4.77,1.68,4.77,5.14v.79h-6.94c0,1.53.92,2.49,2.34,2.49.94,0,1.61-.41,1.89-1.03h2.64c-.39,1.87-2.08,3.1-4.58,3.1-3.11,0-5.01-2.02-5.01-5.24ZM183.62,19.85c0-1.23-.86-2.11-2.1-2.11s-2.18.94-2.23,2.11h4.32Z"/>
      <path class="st0" d="M190.75,25.95h-2.77v-10.16h2.64v1.78h.11c.47-1.18,1.55-1.91,3.05-1.91,2.11,0,3.52,1.44,3.5,3.82v6.47h-2.75v-5.99c0-1.25-.69-2-1.83-2s-1.95.77-1.95,2.11v5.87Z"/>
      <path class="st0" d="M204.77,17.87h-1.91v4.96c0,.8.39,1.01.95,1.03.28,0,.77-.02,1.1-.06v2.19c-.3.06-.79.09-1.48.09-2,0-3.37-.9-3.35-2.86v-5.35h-1.4v-2.08h1.4v-2.43h2.77v2.43h1.91v2.08Z"/>
      <path class="st0" d="M209.28,25.95h-2.77v-10.16h2.64v1.78h.11c.47-1.18,1.55-1.91,3.05-1.91,2.11,0,3.52,1.44,3.5,3.82v6.47h-2.75v-5.99c0-1.25-.69-2-1.83-2s-1.95.77-1.95,2.11v5.87Z"/>
      <path class="st0" d="M217.54,20.92c0-3.14,1.93-5.26,4.9-5.26,2.67,0,4.77,1.68,4.77,5.14v.79h-6.94c0,1.53.92,2.49,2.34,2.49.94,0,1.61-.41,1.89-1.03h2.64c-.39,1.87-2.08,3.1-4.58,3.1-3.1,0-5.01-2.02-5.01-5.24ZM224.59,19.85c0-1.23-.86-2.11-2.1-2.11s-2.18.94-2.23,2.11h4.32Z"/>
      <path class="st0" d="M228.94,15.79h2.67v1.76h.11c.37-1.25,1.31-1.91,2.45-1.91.28,0,.64.04.88.09v2.47c-.26-.08-.79-.15-1.18-.15-1.25,0-2.17.88-2.17,2.11v5.78h-2.77v-10.16Z"/>
    </g>
  </g>
</svg>