<?xml version="1.0" encoding="UTF-8"?>
<svg id="_레이어_1" xmlns="http://www.w3.org/2000/svg" version="1.1" viewBox="0 0 347 55">
  <!-- Generator: Adobe Illustrator 29.5.0, SVG Export Plug-In . SVG Version: 2.1.0 Build 137)  -->
  <defs>
    <style>
      .st0 {
        fill: #fff;
      }

      .st1 {
        fill: #2aa1cd;
      }
    </style>
  </defs>
  <polygon class="st1" points="173.36 55.14 192.94 29.2 153.77 29.2 173.36 55.14"/>
  <g>
    <rect class="st1" x="-.57" width="348.14" height="42.17"/>
    <g>
      <path class="st0" d="M98.43,27.75v-13.54h4.83c4.08,0,6.57,2.54,6.57,6.75s-2.49,6.79-6.62,6.79h-4.77ZM103.09,25.34c2.58,0,3.93-1.35,3.93-4.38s-1.35-4.34-3.91-4.34h-1.87v8.72h1.85Z"/>
      <path class="st0" d="M111.39,22.72c0-3.14,1.93-5.26,4.9-5.26,2.68,0,4.77,1.68,4.77,5.14v.79h-6.94c0,1.53.92,2.49,2.34,2.49.94,0,1.61-.41,1.89-1.03h2.64c-.39,1.87-2.08,3.1-4.58,3.1-3.11,0-5.01-2.02-5.01-5.24ZM118.44,21.66c0-1.23-.86-2.11-2.09-2.11s-2.18.94-2.23,2.11h4.32Z"/>
      <path class="st0" d="M125.57,27.75h-2.77v-10.16h2.64v1.78h.11c.47-1.18,1.55-1.91,3.05-1.91,2.11,0,3.52,1.44,3.5,3.82v6.47h-2.75v-5.99c0-1.25-.69-2-1.83-2s-1.95.77-1.95,2.11v5.87Z"/>
      <path class="st0" d="M139.59,19.67h-1.91v4.96c0,.8.39,1.01.95,1.03.28,0,.77-.02,1.1-.06v2.19c-.3.06-.79.09-1.48.09-2,0-3.37-.9-3.35-2.86v-5.35h-1.4v-2.08h1.4v-2.43h2.77v2.43h1.91v2.08Z"/>
      <path class="st0" d="M144.1,27.75h-2.77v-10.16h2.64v1.78h.11c.47-1.18,1.55-1.91,3.05-1.91,2.11,0,3.52,1.44,3.5,3.82v6.47h-2.75v-5.99c0-1.25-.69-2-1.83-2s-1.95.77-1.95,2.11v5.87Z"/>
      <path class="st0" d="M152.36,22.72c0-3.14,1.93-5.26,4.9-5.26,2.67,0,4.77,1.68,4.77,5.14v.79h-6.94c0,1.53.92,2.49,2.34,2.49.94,0,1.61-.41,1.89-1.03h2.64c-.39,1.87-2.08,3.1-4.58,3.1-3.1,0-5.01-2.02-5.01-5.24ZM159.41,21.66c0-1.23-.86-2.11-2.1-2.11s-2.18.94-2.23,2.11h4.32Z"/>
      <path class="st0" d="M163.76,17.6h2.67v1.76h.11c.37-1.25,1.31-1.91,2.45-1.91.28,0,.64.04.88.09v2.47c-.26-.08-.79-.15-1.18-.15-1.25,0-2.17.88-2.17,2.11v5.78h-2.77v-10.16Z"/>
      <path class="st0" d="M178.03,14.21l3.12,5.84h.13l3.11-5.84h3.16l-4.94,8.72v4.83h-2.81v-4.83l-4.94-8.72h3.16Z"/>
      <path class="st0" d="M186.45,22.7c0-3.14,1.91-5.24,4.98-5.24s5,2.1,5,5.24-1.93,5.26-5,5.26-4.98-2.11-4.98-5.26ZM193.6,22.7c0-1.8-.73-3.12-2.15-3.12s-2.19,1.33-2.19,3.12.75,3.1,2.19,3.1,2.15-1.33,2.15-3.1Z"/>
      <path class="st0" d="M204.67,17.6h2.77v10.16h-2.66v-1.83h-.11c-.47,1.18-1.55,1.96-3.09,1.96-2.04,0-3.42-1.44-3.42-3.82v-6.47h2.77v5.99c0,1.2.69,1.96,1.78,1.96,1.01,0,1.96-.73,1.96-2.11v-5.84Z"/>
      <path class="st0" d="M214.93,19.67h-1.91v4.96c0,.8.39,1.01.95,1.03.28,0,.77-.02,1.1-.06v2.19c-.3.06-.79.09-1.48.09-2,0-3.37-.9-3.35-2.86v-5.35h-1.4v-2.08h1.4v-2.43h2.77v2.43h1.91v2.08Z"/>
      <path class="st0" d="M223.18,17.6h2.77v10.16h-2.66v-1.83h-.11c-.47,1.18-1.55,1.96-3.09,1.96-2.04,0-3.42-1.44-3.42-3.82v-6.47h2.77v5.99c0,1.2.69,1.96,1.78,1.96,1.01,0,1.96-.73,1.96-2.11v-5.84Z"/>
      <path class="st0" d="M228.15,14.21h2.77v5.09h.07c.39-.82,1.2-1.83,2.9-1.83,2.24,0,4.13,1.74,4.13,5.22s-1.81,5.24-4.13,5.24c-1.67,0-2.51-.95-2.9-1.8h-.11v1.63h-2.73v-13.54ZM233.01,25.72c1.42,0,2.17-1.25,2.17-3.05s-.75-2.99-2.17-2.99-2.15,1.16-2.15,2.99.79,3.05,2.15,3.05Z"/>
      <path class="st0" d="M239.39,22.72c0-3.14,1.93-5.26,4.9-5.26,2.67,0,4.77,1.68,4.77,5.14v.79h-6.94c0,1.53.92,2.49,2.34,2.49.94,0,1.61-.41,1.89-1.03h2.64c-.39,1.87-2.08,3.1-4.58,3.1-3.1,0-5.01-2.02-5.01-5.24ZM246.44,21.66c0-1.23-.86-2.11-2.1-2.11s-2.18.94-2.23,2.11h4.32Z"/>
    </g>
  </g>
</svg>